<?xml version="1.0" encoding="utf-8"?>
<!-- Generator: Adobe Illustrator 26.0.3, SVG Export Plug-In . SVG Version: 6.00 Build 0)  -->
<svg version="1.0" id="katman_1" xmlns="http://www.w3.org/2000/svg" xmlns:xlink="http://www.w3.org/1999/xlink" x="0px" y="0px"
	 viewBox="0 0 600 450" style="enable-background:new 0 0 600 450;" xml:space="preserve">
<style type="text/css">
	.st0{fill:none;stroke:#1C3448;stroke-width:1.8461;stroke-linecap:round;stroke-linejoin:round;}
	.st1{fill:none;stroke:#87BE44;stroke-width:1.8461;stroke-linecap:round;stroke-linejoin:round;}
	.st2{fill:none;stroke:#1C3448;stroke-width:2.0493;stroke-linecap:round;stroke-linejoin:round;}
	.st3{fill:none;stroke:#87BE44;stroke-width:2.0493;stroke-linecap:round;stroke-linejoin:round;}
	.st4{fill:none;stroke:#1C3448;stroke-width:2.0995;stroke-linecap:round;stroke-linejoin:round;}
	.st5{fill:none;stroke:#87BE44;stroke-width:2.0995;stroke-linecap:round;stroke-linejoin:round;}
	.st6{fill:none;stroke:#1C3448;stroke-width:1.863;stroke-miterlimit:10;}
	.st7{fill:none;stroke:#87BE44;stroke-width:1.863;stroke-miterlimit:10;}
	.st8{fill:none;stroke:#1C3448;stroke-width:2.5;stroke-linecap:round;stroke-linejoin:round;}
	.st9{clip-path:url(#SVGID_00000067941289522468201440000003093530775136640682_);}
	.st10{fill:none;stroke:#75B72A;stroke-width:2.5;stroke-linecap:round;stroke-linejoin:round;}
	.st11{fill:none;stroke:#1C3448;stroke-width:2.0216;stroke-linecap:round;stroke-linejoin:round;}
	.st12{fill:none;stroke:#87BE44;stroke-width:2.0216;stroke-linecap:round;stroke-linejoin:round;}
	.st13{fill:#86BD3A;}
	.st14{fill:none;stroke:#1C3448;stroke-width:3.2488;stroke-linecap:round;stroke-linejoin:round;}
	.st15{fill:none;stroke:#1C3448;stroke-width:2.8313;stroke-linecap:round;stroke-linejoin:round;}
	.st16{fill:none;stroke:#86BD3A;stroke-width:2.8313;stroke-linecap:round;stroke-linejoin:round;}
	.st17{fill:none;stroke:#86BD3A;stroke-width:2.7745;stroke-linecap:round;stroke-linejoin:round;}
	.st18{fill:#87BE44;}
	.st19{fill:none;stroke:#1C3448;stroke-width:3.6993;stroke-linecap:round;stroke-linejoin:round;}
	.st20{fill:none;stroke:#86BD3A;stroke-width:3.3125;stroke-linecap:round;stroke-linejoin:round;}
	.st21{fill:none;stroke:#1C3448;stroke-width:3.3125;stroke-linecap:round;stroke-linejoin:round;}
</style>
<g>
	<g id="Group_6330" transform="translate(1.5 1.5)">
		<path id="Path_3265" class="st0" d="M153,193.1v18c0,2.5-2,4.5-4.5,4.5c0,0,0,0,0,0h-36.2c-2.5,0-4.5-2-4.5-4.5c0,0,0,0,0,0v-18
			c0-2.5,2-4.5,4.5-4.5c0,0,0,0,0,0h33"/>
		<path id="Path_3266" class="st0" d="M150.8,183.2l-9.5,9.5c-1.2,1.2-1.2,3.1,0,4.3c1.2,1.2,3.1,1.2,4.3,0l2.5-2.5
			c1-1,2.3-1.5,3.7-1.5h2.9c1.6,0,3.1-0.6,4.2-1.8l2.8-2.8"/>
		<path id="Path_3267" class="st0" d="M131.1,188.6l11.2-10c1.7-1.5,3.8-2.3,6.1-2.3h22.4"/>
		<path id="Path_3268" class="st0" d="M153,204h1.5c1.3,0,2.5-0.5,3.4-1.4l3.3-3.3c0.9-0.9,2.2-1.4,3.5-1.4h6.2"/>
		<path id="Path_3269" class="st0" d="M129.8,215.5l-21.3,10.1L81.2,214l26.6-12.8"/>
		<path id="Path_3270" class="st0" d="M105,217.6l-7.4,3.6v12.3l-7.4-3.6v-12.3l7.4-3.6L105,217.6z"/>
		<path id="Path_3271" class="st0" d="M136.2,215.5v28.1l-27.7,14.5"/>
		<path id="Path_3272" class="st0" d="M80.8,213.9v32.5l27.7,11.7v-32.5"/>
		<line id="Line_837" class="st1" x1="129.7" y1="196" x2="117.3" y2="196"/>
		<line id="Line_838" class="st1" x1="144" y1="209.9" x2="116.5" y2="209.9"/>
	</g>
	<g id="Group_6529" transform="translate(-553.112 -2160.954)">
		<path id="Path_3286" class="st2" d="M749.4,2355l6.4-12.2h47l5.2,12.2"/>
		<path id="Path_3287" class="st2" d="M792.5,2388.1l25.3-11.6l26.6,12.3"/>
		<path id="Path_3288" class="st2" d="M780.2,2347.6c4.8,1,8.2,5.2,8.2,10.1c0,5.7-7.7,15.4-10.3,15.4c-2.7,0-10.3-9.7-10.3-15.4
			c0-5.7,4.6-10.3,10.3-10.3C778.8,2347.3,779.5,2347.4,780.2,2347.6"/>
		<path id="Path_3289" class="st2" d="M779,2353.2c2.4,0.5,4,2.9,3.5,5.3c-0.5,2.4-2.9,4-5.3,3.5c-2.4-0.5-4-2.9-3.5-5.3
			c0.4-2.1,2.3-3.6,4.4-3.6C778.4,2353.1,778.7,2353.2,779,2353.2"/>
		<ellipse id="Ellipse_619" class="st2" cx="818.3" cy="2401" rx="10.3" ry="10.3"/>
		<path id="Path_3290" class="st2" d="M818.3,2395.7v6.1l4,4"/>
		<path id="Path_3291" class="st3" d="M769.6,2404.3v-23.1h14.6"/>
		<line id="Line_842" class="st2" x1="812" y1="2393" x2="809.1" y2="2390.1"/>
		<line id="Line_843" class="st2" x1="824.8" y1="2393" x2="827.7" y2="2390.1"/>
		<line id="Line_844" class="st2" x1="816.6" y1="2387.2" x2="819.9" y2="2387.2"/>
		<path id="Path_3292" class="st2" d="M792.4,2416h-32.5c-2.7,0-5-2.2-5-5l0,0v-48.8"/>
		<line id="Line_845" class="st2" x1="803.1" y1="2362.1" x2="803.1" y2="2383.4"/>
		<path id="Path_3293" class="st2" d="M787.7,2361.2c2.9,1.5,6.5,0.3,8-2.6c0.3-0.5,0.5-1.1,0.6-1.7c0.5,3.2,3.6,5.4,6.8,4.9
			c2.9-0.5,5-3,5-5.9c0-0.3,0-0.6-0.1-0.9h-19.8"/>
		<path id="Path_3294" class="st2" d="M768.1,2355h-18.7c-0.1,0.3-0.1,0.6-0.1,0.9c0,3.3,2.6,6,5.9,6c2.9,0,5.4-2.1,5.9-5
			c0.5,3.2,3.6,5.4,6.8,4.9c0.3,0,0.5-0.1,0.8-0.2"/>
		<path id="Path_3295" class="st2" d="M809.7,2395.3l-17.1-7.2v30.3l25.9,11.1"/>
		<path id="Path_3296" class="st2" d="M827,2395.6l17.4-6.8v30.3l-26.1,10.2v-17.7"/>
	</g>
	<g id="Group_6527" transform="translate(1.883 1.5)">
		<rect id="Rectangle_3060" x="432.1" y="213.2" class="st4" width="52.5" height="46.3"/>
		<path id="Path_3273" class="st4" d="M484.6,213.2l-4.2-13.4h-44l-4.2,13.4"/>
		<path id="Path_3274" class="st4" d="M464.8,213.2l-2.1-6.7h-8.8l-2.1,6.7"/>
		<path id="Path_3275" class="st5" d="M462.2,228.6c-6.3-1.8-12.8,1.8-14.6,8.1c-1.8,6.3,1.8,12.8,8.1,14.6
			c6.3,1.8,12.8-1.8,14.6-8.1c0.5-1.6,0.6-3.3,0.3-5"/>
		<path id="Path_3276" class="st5" d="M453.4,239.8l4.9,4.9l10.1-13.7"/>
		<path id="Path_3277" class="st4" d="M484.8,191.2l2.5,2.5l5.1-6.9"/>
		<path id="Path_3278" class="st4" d="M464.7,213.2v7.7H452v-7.7"/>
		<path id="Path_3279" class="st4" d="M479.4,199.8v-20.1h5.6"/>
		<path id="Path_3280" class="st4" d="M518.1,179.7h5.5v51.9h-39.1"/>
		<path id="Path_3281" class="st4" d="M474.4,199.8v-26h14.1"/>
		<path id="Path_3282" class="st4" d="M514.6,173.8h14.1v63.6h-44"/>
		<line id="Line_839" class="st4" x1="495.4" y1="190.8" x2="517.1" y2="190.8"/>
		<path id="Path_3283" class="st4" d="M484.8,207l2.5,2.5l5.1-6.9"/>
		<line id="Line_840" class="st4" x1="495.4" y1="206.7" x2="510.5" y2="206.7"/>
		<path id="Path_3284" class="st4" d="M484.8,222.9l2.5,2.5l5.1-6.9"/>
		<line id="Line_841" class="st4" x1="495.4" y1="222.6" x2="508" y2="222.6"/>
		<path id="Path_3285" class="st4" d="M506.6,171.4c-1.4-2.7-4.7-3.7-7.4-2.3c-1,0.5-1.8,1.3-2.3,2.3h-8.2v8.8h26.2v-8.8H506.6z"/>
	</g>
	<g id="Group_6528" transform="translate(0.234 0.257)">
		<g id="Group_6533" transform="translate(0 0)">
			<path id="Path_3536" class="st6" d="M346.7,254.1c5.3,0.7,9.1,2.4,9.1,4.4c0,2.6-6.2,4.7-13.8,4.7s-13.8-2.1-13.8-4.7
				c0-2,3.5-3.6,8.4-4.3"/>
			<path id="Path_3537" class="st6" d="M402.6,232.7c0,2.6-6.2,4.7-13.8,4.7s-13.8-2.1-13.8-4.7c0-2,3.5-3.6,8.4-4.3
				c1.8-0.3,3.6-0.4,5.4-0.4c1.6,0,3.1,0.1,4.7,0.3C398.8,228.9,402.6,230.7,402.6,232.7z"/>
			<line id="Line_944" class="st6" x1="384.5" y1="237.3" x2="350.7" y2="254.8"/>
			<line id="Line_945" class="st6" x1="350.7" y1="210.8" x2="384.5" y2="228.2"/>
			<path id="Path_3538" class="st6" d="M330.1,200.9v-14.3l12-5.5l12.6,5.8v14.3l-12.3,4.8L330.1,200.9z"/>
			<path id="Path_3539" class="st6" d="M342.3,206v-14.7l-12.2-4.7"/>
			<line id="Line_946" class="st6" x1="342.3" y1="191.3" x2="354.6" y2="186.9"/>
			<path id="Path_3540" class="st6" d="M350.4,202.8c3.5,0.9,5.8,2.3,5.8,3.8c0,2.6-6.2,4.7-13.8,4.7c-7.6,0-13.8-2.1-13.8-4.7
				c0-1.6,2.4-3.1,6.2-3.9"/>
			<path id="Path_3535" class="st7" d="M347.7,238.7c0,3.2-2.6,5.8-5.8,5.8c-3.2,0-5.8-2.6-5.8-5.8c0-3.2,2.6-5.8,5.8-5.8
				C345,232.9,347.7,235.5,347.7,238.7z"/>
			<path id="Path_3534" class="st7" d="M356,238c0,7.8-12.5,20.3-14.1,20.3c-1.5,0-14.1-12.4-14.1-20.3c0-7.8,6.3-14.1,14.1-14.1
				S356,230.2,356,238z"/>
		</g>
	</g>
</g>
<g>
	<g id="Group_6516" transform="translate(5 4)">
		<g id="Group_6341" transform="translate(0 0)">
			<g id="Group_6573">
				<path id="Path_3328" class="st8" d="M61.5,83.4V61L94.1,42l31.6,18.2V98l-31.8,18.4l-9.2-5.3"/>
				<path id="Path_3329" class="st8" d="M61.5,61l32.4,17.4l31.8-18.2"/>
				<line id="Line_853" class="st8" x1="93.9" y1="78.3" x2="93.9" y2="116.4"/>
			</g>
		</g>
		<path id="Path_3330" class="st8" d="M76.6,53l31,17.2v10.2l6.4-3.7V66.4L83,49.2"/>
		<g id="Group_6343" transform="translate(0 0)">
			<g>
				<defs>
					<rect id="SVGID_1_" x="46.4" y="37.3" width="85" height="85.1"/>
				</defs>
				<clipPath id="SVGID_00000021089651192545124220000012956984965105572749_">
					<use xlink:href="#SVGID_1_"  style="overflow:visible;"/>
				</clipPath>
				<g id="Group_6342" style="clip-path:url(#SVGID_00000021089651192545124220000012956984965105572749_);">
					<path id="Path_3331" class="st8" d="M74.7,82.9c-9.5-2.7-19.3,2.8-22,12.2c-2.7,9.5,2.8,19.3,12.2,22s19.3-2.8,22-12.2
						c0.7-2.5,0.9-5,0.5-7.6"/>
					<path id="Path_3332" class="st10" d="M61.3,99.7l7.4,7.4l15.3-20.7"/>
				</g>
			</g>
		</g>
	</g>
	<g id="Group_6351" transform="translate(1.28 1.25)">
		<path id="Path_3333" class="st10" d="M189.8,86.2l2.9,8.8c0.2,0.6,0.8,1,1.4,1h9.3c0.8,0,1.5,0.7,1.5,1.5c0,0.5-0.2,0.9-0.6,1.2
			l-7.5,5.5c-0.5,0.4-0.7,1-0.5,1.7l2.9,8.8c0.3,0.8-0.2,1.6-1,1.9c-0.5,0.1-0.9,0.1-1.3-0.2l-7.5-5.5c-0.5-0.4-1.2-0.4-1.7,0
			l-7.5,5.5c-0.7,0.5-1.6,0.3-2.1-0.3c-0.3-0.4-0.4-0.9-0.2-1.3l2.9-8.8c0.2-0.6,0-1.3-0.5-1.7l-7.5-5.5c-0.7-0.5-0.8-1.4-0.3-2.1
			c0.3-0.4,0.7-0.6,1.2-0.6h9.3c0.6,0,1.2-0.4,1.4-1l2.9-8.8c0.3-0.8,1.1-1.2,1.9-1C189.3,85.4,189.7,85.7,189.8,86.2z"/>
		<path id="Path_3334" class="st8" d="M199.7,90.1h7.6c0.5,0,1-0.3,1.2-0.8l2.4-7.3c0.2-0.6,0.9-1,1.5-0.8c0.4,0.1,0.7,0.4,0.8,0.8
			l2.4,7.3c0.2,0.5,0.6,0.8,1.2,0.8h7.6c0.7,0,1.2,0.5,1.2,1.2c0,0.4-0.2,0.8-0.5,1l-6.2,4.5c-0.4,0.3-0.6,0.9-0.4,1.4l2.4,7.3
			c0.2,0.6-0.1,1.3-0.8,1.5c-0.4,0.1-0.8,0.1-1.1-0.2l-6.2-4.5c-0.4-0.3-1-0.3-1.4,0l-6.2,4.5"/>
		<path id="Path_3335" class="st8" d="M171.7,106.8l-6.2-4.5c-0.4-0.3-1-0.3-1.4,0l-6.2,4.5c-0.5,0.4-1.3,0.3-1.7-0.3
			c-0.2-0.3-0.3-0.7-0.2-1.1l2.4-7.3c0.2-0.5,0-1.1-0.4-1.4l-6.2-4.5c-0.5-0.4-0.7-1.2-0.3-1.7c0.2-0.3,0.6-0.5,1-0.5h7.6
			c0.5,0,1-0.3,1.2-0.8l2.4-7.3c0.2-0.6,0.9-1,1.5-0.8c0.4,0.1,0.7,0.4,0.8,0.8l2.4,7.3c0.2,0.5,0.6,0.8,1.2,0.8h7.6"/>
		<path id="Path_3336" class="st8" d="M199.2,69.1c0,5.9-4.8,10.7-10.7,10.7c-5.9,0-10.7-4.8-10.7-10.7H199.2z"/>
		<path id="Path_3337" class="st8" d="M176.1,60.8c0-2.3,1.8-4.2,4.1-4.2c2.3,0,4.2,1.8,4.2,4.1c0,0,0,0.1,0,0.1"/>
		<path id="Path_3338" class="st8" d="M192.7,60.8c0-2.3,1.8-4.2,4.1-4.2s4.2,1.8,4.2,4.1c0,0,0,0.1,0,0.1"/>
		<path id="Path_3339" class="st8" d="M182.1,85.6c-10.8-3.6-16.6-15.2-13-26c3.6-10.8,15.2-16.6,26-13s16.6,15.2,13,26
			c-2.1,6.2-7,11-13.2,13"/>
	</g>
	<g id="Group_6352" transform="translate(1.25 1.25)">
		<g id="Group_6355" transform="translate(0 0)">
			<path id="Rectangle_3072" class="st8" d="M255.4,52.5h60.2c3.7,0,6.6,3,6.6,6.6v35.6c0,3.7-3,6.6-6.6,6.6h-60.2
				c-3.7,0-6.6-3-6.6-6.6V59.1C248.8,55.4,251.8,52.5,255.4,52.5z"/>
			<path id="Path_3340" class="st8" d="M279.9,109.1h20.9c2.7,0,4.8,2.2,4.8,4.9c0,2.6-2.1,4.7-4.8,4.8h-31.6
				c-2.7,0-4.8-2.2-4.8-4.9c0-2.6,2.1-4.7,4.8-4.8h3.9l2.4-7.7"/>
			<line id="Line_858" class="st8" x1="298.5" y1="109.1" x2="296.1" y2="101.4"/>
			<line id="Line_861" class="st8" x1="257.1" y1="80.6" x2="263.9" y2="80.6"/>
			<line id="Line_862" class="st10" x1="272.1" y1="89.7" x2="298.9" y2="89.7"/>
			<line id="Line_863" class="st8" x1="261.5" y1="75.2" x2="266.4" y2="75.2"/>
			<line id="Line_864" class="st8" x1="254.8" y1="70" x2="264.6" y2="70"/>
			<path id="Path_3341" class="st10" d="M297.1,66.8h-22.9l-2.6,28.7h28L297.1,66.8z"/>
			<path id="Path_3342" class="st10" d="M292.1,71.2v-5.6c0-3.6-2.9-6.6-6.6-6.6c-3.6,0-6.6,2.9-6.6,6.6v5.5"/>
			<ellipse id="Ellipse_621" class="st10" cx="279" cy="76.3" rx="1.2" ry="1.2"/>
			<ellipse id="Ellipse_622" class="st10" cx="292.1" cy="76.3" rx="1.2" ry="1.2"/>
		</g>
	</g>
	<g id="Group_6358" transform="translate(1.25 1.255)">
		<g id="Group_6359" transform="translate(0 0)">
			<path id="Path_3343" class="st8" d="M371.6,72.5c-0.1,6.2-5.3,11.2-11.5,11.1s-11.2-5.3-11.1-11.5c0-0.9,0.1-1.7,0.3-2.5
				c0.8-3.5,1.7-7,2.6-10.4c0.6-2.6,1.3-5.2,2-7.8c0.2-1.3,1.4-2.3,2.8-2.2h0c3.1,0,11.8,0,14.9,0v2c0,2.1,0,4.1,0,6.2
				C371.6,62.3,371.6,67.5,371.6,72.5"/>
			<path id="Path_3344" class="st8" d="M393.4,72.5c0-5.1,0-10.2,0-15.2c0-2.1,0-4.1,0-6.2v-2c3.1,0,11.8,0,14.9,0h0
				c1.3-0.1,2.5,0.9,2.8,2.2c0.6,2.6,1.3,5.2,2,7.8c0.9,3.4,1.7,6.9,2.6,10.4c1.5,6.1-2.2,12.2-8.2,13.7c-6.1,1.5-12.2-2.2-13.7-8.2
				C393.5,74.2,393.4,73.4,393.4,72.5"/>
			<path id="Path_3345" class="st8" d="M393.4,72.5c0,5.1-3.4,9.5-8.3,10.8c-2.9,0.7-6,0.1-8.5-1.6c-2.5-1.7-4.2-4.4-4.7-7.5
				c-0.1-0.7-0.2-1.4-0.2-2.1c0-5.9,0-17.2,0-23h21.8C393.4,54.4,393.4,67.4,393.4,72.5"/>
			<path id="Path_3347" class="st10" d="M391.3,116.9V98c0-1.8-1.5-3.3-3.3-3.3c0,0,0,0,0,0h-10.9c-1.8,0-3.3,1.5-3.3,3.3l0,0v18.8"
				/>
			<path id="Path_3346" class="st8" d="M352.4,80.6v31.7c0,2.6,2.1,4.6,4.6,4.6c0,0,0,0,0,0h51.1c2.6,0,4.6-2.1,4.6-4.6c0,0,0,0,0,0
				V91.5"/>
		</g>
	</g>
	<g id="Group_6534" transform="translate(-5.606 -9.768)">
		<g id="Group_6532" transform="translate(7.106 11.268)">
			<path id="Path_3542" class="st11" d="M485.3,59.3h38.2v44.4h-15.9"/>
			<line id="Line_948" class="st11" x1="466.2" y1="59.3" x2="479.8" y2="59.3"/>
			<line id="Line_949" class="st11" x1="454.6" y1="69.9" x2="484.3" y2="69.9"/>
			<line id="Line_950" class="st11" x1="459.3" y1="81.2" x2="489" y2="81.2"/>
			<line id="Line_951" class="st11" x1="472.8" y1="92.4" x2="483.7" y2="92.4"/>
			<line id="Line_952" class="st11" x1="523.8" y1="92.4" x2="544.6" y2="92.4"/>
			<line id="Line_953" class="st11" x1="448.5" y1="92.4" x2="466.1" y2="92.4"/>
			<circle id="Ellipse_720" class="st11" cx="494.2" cy="110.5" r="9.1"/>
			<circle id="Ellipse_721" class="st11" cx="540.5" cy="110.5" r="9.1"/>
			<line id="Line_954" class="st11" x1="503.2" y1="110.5" x2="531.2" y2="110.5"/>
			<path id="Path_3543" class="st11" d="M484.3,103.7h-12.8v6.9h12.9"/>
			<path id="Path_3544" class="st11" d="M553.8,103.7h6.1v6.9h-10.3"/>
			<path id="Path_3545" class="st11" d="M523.7,68.1c16.7-1.7,31.7,10.5,33.4,27.2c0.3,2.8,0.2,5.7-0.3,8.4"/>
			<path id="Path_3546" class="st11" d="M535.3,76c4.6,1.8,8.6,4.9,11.5,9"/>
			<rect id="Rectangle_3113" x="492.8" y="71.5" class="st12" width="26" height="23"/>
			<path id="Path_3547" class="st12" d="M518.8,71.5l-2.6-3.3h-20.8l-2.6,3.3"/>
			<path id="Path_3548" class="st12" d="M509,71.5v3.6h-6.5v-3.6"/>
		</g>
	</g>
</g>
<g>
	<g id="Group_6512" transform="translate(-298.5 -6108.5)">
		<path id="icon-money" class="st13" d="M452.3,6453.8c0.9,0,1.5,0.7,1.6,1.5c0,0,0,0,0,0l0,0v1.4c3.1,0.6,5.3,3.3,5.3,6.4
			c0,0.9-0.7,1.5-1.6,1.5c-0.8,0-1.5-0.7-1.5-1.5c0-2-1.5-3.6-3.5-3.6c-2,0-3.6,1.5-3.6,3.5c0,2,1.5,3.6,3.5,3.6c0,0,0,0,0.1,0
			c3.6-0.1,6.6,2.8,6.6,6.4c0.1,3.2-2.2,5.9-5.3,6.5l0,0v1.4c0,0.9-0.7,1.5-1.6,1.5c-0.8,0-1.5-0.7-1.5-1.5l0,0v-1.5
			c-2.9-0.7-4.9-3.3-4.9-6.3c0-0.9,0.7-1.5,1.6-1.5c0.8,0,1.5,0.7,1.5,1.5c0,1.8,1.4,3.2,3.1,3.4c0.2,0,0.4,0,0.5,0
			c1.9,0,3.5-1.6,3.4-3.5c0-1.9-1.6-3.5-3.5-3.4c0,0-0.1,0-0.1,0c-3.3,0-6.1-2.4-6.6-5.6c-0.4-3.3,1.7-6.3,4.8-7.1l0,0v-1.5
			C450.7,6454.5,451.4,6453.8,452.3,6453.8C452.3,6453.8,452.3,6453.8,452.3,6453.8z"/>
		<g id="Group_6446" transform="translate(299 6109)">
			<g id="Group_6447" transform="translate(0 0)">
				<path id="Path_3460" class="st14" d="M116.8,344.9v27.8c0,3.8,3.1,6.9,6.9,6.9c0,0,0,0,0,0h55.9c3.8,0,6.9-3.1,6.9-6.9
					c0,0,0,0,0,0v-27.8c0-3.8-3.1-6.9-6.9-6.9l0,0h-50.9"/>
				<path id="Path_3461" class="st14" d="M120.2,329.6l14.7,14.7c1.9,1.8,1.9,4.8,0.1,6.6c-1.8,1.9-4.8,1.9-6.6,0.1
					c0,0-0.1-0.1-0.1-0.1l-3.9-3.9c-1.5-1.5-3.5-2.3-5.7-2.3h-4.5c-2.5,0-4.8-1-6.6-2.7l-4.3-4.3"/>
				<path id="Path_3462" class="st14" d="M150.7,338l-17.3-15.5c-2.6-2.3-5.9-3.6-9.4-3.6H89.5"/>
				<path id="Path_3463" class="st14" d="M116.9,361.7h-2.4c-1.9,0-3.8-0.8-5.2-2.2l-5-5c-1.4-1.4-3.3-2.2-5.4-2.2h-9.6"/>
			</g>
		</g>
	</g>
	<g id="Group_6556" transform="translate(0.691 1.692)">
		<g id="Group_6455" transform="translate(0 0)">
			<path id="Path_3473" class="st15" d="M240.9,321.4c16.8-5.2,34.7,4.2,39.9,21c5.2,16.8-4.2,34.7-21,39.9
				c-6.1,1.9-12.7,1.9-18.8,0"/>
			<line id="Line_926" class="st15" x1="239.1" y1="330.7" x2="231.4" y2="330.7"/>
			<line id="Line_927" class="st15" x1="239.1" y1="339" x2="228.4" y2="339"/>
			<line id="Line_928" class="st15" x1="239.1" y1="347.2" x2="220.2" y2="347.2"/>
			<line id="Line_929" class="st15" x1="239.1" y1="355.4" x2="213.1" y2="355.4"/>
			<line id="Line_930" class="st15" x1="239.1" y1="363.7" x2="220.2" y2="363.7"/>
			<line id="Line_931" class="st15" x1="239.1" y1="371.9" x2="228.4" y2="371.9"/>
			<line id="Line_932" class="st15" x1="249.8" y1="320.3" x2="249.8" y2="325.7"/>
			<line id="Line_933" class="st15" x1="248.1" y1="316.4" x2="248.1" y2="319.7"/>
			<line id="Line_934" class="st15" x1="251.5" y1="316.4" x2="251.5" y2="319.7"/>
			<line id="Line_935" class="st15" x1="249.8" y1="378.2" x2="249.8" y2="383.6"/>
			<line id="Line_936" class="st15" x1="265.6" y1="324.5" x2="262.9" y2="329.3"/>
			<line id="Line_937" class="st15" x1="277.2" y1="336.1" x2="272.4" y2="338.9"/>
			<line id="Line_938" class="st15" x1="281.4" y1="352" x2="276" y2="352"/>
			<line id="Line_939" class="st15" x1="277.2" y1="367.8" x2="272.4" y2="365.1"/>
			<line id="Line_940" class="st15" x1="265.6" y1="379.4" x2="262.9" y2="374.6"/>
			<line id="Line_941" class="st15" x1="272.9" y1="329.3" x2="276.5" y2="325.7"/>
			
				<rect id="Rectangle_3105" x="275.8" y="320" transform="matrix(0.7071 -0.7071 0.7071 0.7071 -146.8637 292.0672)" class="st15" width="6.6" height="6.6"/>
			<path id="Path_3474" class="st15" d="M255.6,314.9H244c-1.1,0-2-0.8-2.1-2c0-1.1,0.8-2,2-2.1c0,0,0.1,0,0.1,0h11.6
				c1.1,0,2,1,2,2.1C257.5,314,256.6,314.8,255.6,314.9z"/>
			<path id="Path_3475" class="st16" d="M247.8,350.2l16.2-11.7c0.6-0.4,1.3-0.3,1.8,0.3c0.3,0.4,0.3,1,0,1.5"/>
			<path id="Path_3476" class="st16" d="M265.8,340.2l-11.7,16.2c-0.8,1.1-2,1.7-3.3,1.8c-0.1,0-0.2,0-0.4,0c-2.5,0-4.5-2-4.5-4.5
				c0-1.4,0.7-2.8,1.8-3.6"/>
		</g>
	</g>
	<g id="Group_6513" transform="translate(0.621 0.621)">
		<line id="Line_922" class="st17" x1="337.9" y1="357.1" x2="361.4" y2="357.1"/>
		<path id="Path_3464" class="st17" d="M359.8,337h-20l-2.2,25.1H362L359.8,337z"/>
		<g id="Group_6450" transform="translate(0 0)">
			<g id="Group_6452">
				<path id="Path_3465" class="st17" d="M355.4,340.8V336c0.1-3.2-2.5-5.8-5.6-5.9c-3.2-0.1-5.8,2.5-5.9,5.6c0,0.1,0,0.1,0,0.2v4.8
					"/>
				<path id="Path_3466" class="st18" d="M345.7,345.3c0,1-0.8,1.8-1.8,1.8s-1.8-0.8-1.8-1.8c0-1,0.8-1.8,1.8-1.8
					S345.7,344.4,345.7,345.3L345.7,345.3"/>
				<path id="Path_3472" class="st18" d="M357.2,345.3c0,1-0.8,1.8-1.8,1.8s-1.8-0.8-1.8-1.8c0-1,0.8-1.8,1.8-1.8
					S357.2,344.4,357.2,345.3L357.2,345.3"/>
				<path id="Path_3468" class="st19" d="M369.7,386.1H332c-3.1,0-5.7-2.5-5.7-5.7v-67.7c0-3.1,2.5-5.7,5.7-5.7l0,0h36.4
					c3.1,0,5.7,2.5,5.7,5.7v47.9"/>
				<path id="Path_3469" class="st19" d="M390.5,389.2l-3.9-3.9v-20.4l-12.4-12.4"/>
				<path id="Path_3470" class="st19" d="M377.9,365.2l-6.8-6.8c-5.1-5.1-10.8,0.6-5.7,5.7l5.7,5.7c-6.1,6.1-3.2,16.8,0,16.8"/>
				<path id="Path_3471" class="st19" d="M355.4,386.5l5.9,5.9c1.4,1.4,3.2,2.1,5.2,2.1h0.1c1.4,0,2.7,0.5,3.6,1.5l2.9,2.9"/>
				<line id="Line_923" class="st19" x1="326.3" y1="375.8" x2="351.9" y2="375.8"/>
				<line id="Line_924" class="st19" x1="347.4" y1="380.9" x2="354.8" y2="380.9"/>
				<line id="Line_925" class="st19" x1="348.3" y1="318.7" x2="373.9" y2="318.7"/>
			</g>
		</g>
	</g>
	<g id="Group_6515" transform="translate(0.5 0.451)">
		<g id="Group_6458" transform="translate(0.5 0.549)">
			<circle id="Ellipse_636" class="st20" cx="455.8" cy="328.6" r="12.8"/>
			<path id="Path_3477" class="st21" d="M432.4,377.3V369c0-12.5,10.1-22.7,22.7-22.7c12.5,0,22.6,10.1,22.7,22.7h9.9
				c6.5,0,6.5,8.7,0,8.7"/>
			<path id="Path_3478" class="st21" d="M508.6,343.5H522l-11.9,26.6h-12.7"/>
			<path id="Path_3479" class="st21" d="M474.7,357.4l6.2-13.9h7.4"/>
			<line id="Line_942" class="st21" x1="425.6" y1="377.7" x2="513.8" y2="377.7"/>
			<line id="Line_943" class="st21" x1="464.9" y1="366.2" x2="468.7" y2="377.7"/>
			<path id="Path_3480" class="st21" d="M500.9,325.3c5.5,1.1,9.5,6,9.5,11.6c0,6.5-8.9,17.7-11.9,17.7c-3.1,0-11.9-11.2-11.9-17.7
				c0-6.6,5.3-11.9,11.9-11.9C499.4,325,500.1,325.1,500.9,325.3"/>
			<path id="Path_3481" class="st20" d="M499.6,331.8c2.8,0.6,4.6,3.3,4,6.1s-3.3,4.6-6.1,4c-2.8-0.6-4.6-3.3-4-6.1
				c0.5-2.4,2.6-4.1,5.1-4.1C498.9,331.7,499.2,331.7,499.6,331.8"/>
		</g>
	</g>
</g>
</svg>
